<svg xmlns="http://www.w3.org/2000/svg" viewBox="0 0 1920 1080" preserveAspectRatio="xMidYMid slice" width="1920" height="1080" class="ar-wallpaper"><defs><linearGradient id="wp14s" x1="0" y1="0" x2="0" y2="1"><stop offset="0" stop-color="#0c1015"></stop><stop offset="1" stop-color="#1a212a"></stop></linearGradient><linearGradient id="wp14a" x1="0" y1="0" x2="1" y2="0"><stop offset="0" stop-color="#3fbf8f" stop-opacity="0"></stop><stop offset=".25" stop-color="#3fbf8f"></stop><stop offset=".6" stop-color="#2f9fb0"></stop><stop offset="1" stop-color="#2f5f9a" stop-opacity="0"></stop></linearGradient><linearGradient id="wp14f" x1="0" y1="0" x2="0" y2="1"><stop offset="0" stop-color="#fff" stop-opacity="0"></stop><stop offset=".45" stop-color="#fff" stop-opacity="1"></stop><stop offset="1" stop-color="#fff" stop-opacity="0"></stop></linearGradient><mask id="wp14m"><rect width="1920" height="1080" fill="url(#wp14f)"></rect></mask><filter id="wp14b" x="-20%" y="-50%" width="140%" height="200%"><feGaussianBlur stdDeviation="38"></feGaussianBlur></filter></defs><rect width="1920" height="1080" fill="url(#wp14s)"></rect><circle cx="0" cy="0" r="1.6" fill="#c3ccd6" opacity="0.25"></circle><circle cx="733" cy="397" r="1" fill="#c3ccd6" opacity="0.35"></circle><circle cx="1466" cy="234" r="1" fill="#c3ccd6" opacity="0.45"></circle><circle cx="279" cy="71" r="1" fill="#c3ccd6" opacity="0.55"></circle><circle cx="1012" cy="468" r="1" fill="#c3ccd6" opacity="0.65"></circle><circle cx="1745" cy="305" r="1" fill="#c3ccd6" opacity="0.25"></circle><circle cx="558" cy="142" r="1" fill="#c3ccd6" opacity="0.35"></circle><circle cx="1291" cy="539" r="1.6" fill="#c3ccd6" opacity="0.45"></circle><circle cx="104" cy="376" r="1" fill="#c3ccd6" opacity="0.55"></circle><circle cx="837" cy="213" r="1" fill="#c3ccd6" opacity="0.65"></circle><circle cx="1570" cy="50" r="1" fill="#c3ccd6" opacity="0.25"></circle><circle cx="383" cy="447" r="1" fill="#c3ccd6" opacity="0.35"></circle><circle cx="1116" cy="284" r="1" fill="#c3ccd6" opacity="0.45"></circle><circle cx="1849" cy="121" r="1" fill="#c3ccd6" opacity="0.55"></circle><circle cx="662" cy="518" r="1.6" fill="#c3ccd6" opacity="0.65"></circle><circle cx="1395" cy="355" r="1" fill="#c3ccd6" opacity="0.25"></circle><circle cx="208" cy="192" r="1" fill="#c3ccd6" opacity="0.35"></circle><circle cx="941" cy="29" r="1" fill="#c3ccd6" opacity="0.45"></circle><circle cx="1674" cy="426" r="1" fill="#c3ccd6" opacity="0.55"></circle><circle cx="487" cy="263" r="1" fill="#c3ccd6" opacity="0.65"></circle><circle cx="1220" cy="100" r="1" fill="#c3ccd6" opacity="0.25"></circle><circle cx="33" cy="497" r="1.6" fill="#c3ccd6" opacity="0.35"></circle><circle cx="766" cy="334" r="1" fill="#c3ccd6" opacity="0.45"></circle><circle cx="1499" cy="171" r="1" fill="#c3ccd6" opacity="0.55"></circle><circle cx="312" cy="8" r="1" fill="#c3ccd6" opacity="0.65"></circle><circle cx="1045" cy="405" r="1" fill="#c3ccd6" opacity="0.25"></circle><circle cx="1778" cy="242" r="1" fill="#c3ccd6" opacity="0.35"></circle><circle cx="591" cy="79" r="1" fill="#c3ccd6" opacity="0.45"></circle><circle cx="1324" cy="476" r="1.6" fill="#c3ccd6" opacity="0.55"></circle><circle cx="137" cy="313" r="1" fill="#c3ccd6" opacity="0.65"></circle><circle cx="870" cy="150" r="1" fill="#c3ccd6" opacity="0.25"></circle><circle cx="1603" cy="547" r="1" fill="#c3ccd6" opacity="0.35"></circle><circle cx="416" cy="384" r="1" fill="#c3ccd6" opacity="0.45"></circle><circle cx="1149" cy="221" r="1" fill="#c3ccd6" opacity="0.55"></circle><circle cx="1882" cy="58" r="1" fill="#c3ccd6" opacity="0.65"></circle><circle cx="695" cy="455" r="1.6" fill="#c3ccd6" opacity="0.25"></circle><circle cx="1428" cy="292" r="1" fill="#c3ccd6" opacity="0.35"></circle><circle cx="241" cy="129" r="1" fill="#c3ccd6" opacity="0.45"></circle><circle cx="974" cy="526" r="1" fill="#c3ccd6" opacity="0.55"></circle><circle cx="1707" cy="363" r="1" fill="#c3ccd6" opacity="0.65"></circle><circle cx="520" cy="200" r="1" fill="#c3ccd6" opacity="0.25"></circle><circle cx="1253" cy="37" r="1" fill="#c3ccd6" opacity="0.35"></circle><circle cx="66" cy="434" r="1.6" fill="#c3ccd6" opacity="0.45"></circle><circle cx="799" cy="271" r="1" fill="#c3ccd6" opacity="0.55"></circle><circle cx="1532" cy="108" r="1" fill="#c3ccd6" opacity="0.65"></circle><circle cx="345" cy="505" r="1" fill="#c3ccd6" opacity="0.25"></circle><circle cx="1078" cy="342" r="1" fill="#c3ccd6" opacity="0.35"></circle><circle cx="1811" cy="179" r="1" fill="#c3ccd6" opacity="0.45"></circle><circle cx="624" cy="16" r="1" fill="#c3ccd6" opacity="0.55"></circle><circle cx="1357" cy="413" r="1.6" fill="#c3ccd6" opacity="0.65"></circle><circle cx="170" cy="250" r="1" fill="#c3ccd6" opacity="0.25"></circle><circle cx="903" cy="87" r="1" fill="#c3ccd6" opacity="0.35"></circle><circle cx="1636" cy="484" r="1" fill="#c3ccd6" opacity="0.45"></circle><circle cx="449" cy="321" r="1" fill="#c3ccd6" opacity="0.55"></circle><circle cx="1182" cy="158" r="1" fill="#c3ccd6" opacity="0.65"></circle><circle cx="1915" cy="555" r="1" fill="#c3ccd6" opacity="0.25"></circle><circle cx="728" cy="392" r="1.6" fill="#c3ccd6" opacity="0.35"></circle><circle cx="1461" cy="229" r="1" fill="#c3ccd6" opacity="0.45"></circle><circle cx="274" cy="66" r="1" fill="#c3ccd6" opacity="0.55"></circle><circle cx="1007" cy="463" r="1" fill="#c3ccd6" opacity="0.65"></circle><circle cx="1740" cy="300" r="1" fill="#c3ccd6" opacity="0.25"></circle><circle cx="553" cy="137" r="1" fill="#c3ccd6" opacity="0.35"></circle><circle cx="1286" cy="534" r="1" fill="#c3ccd6" opacity="0.45"></circle><circle cx="99" cy="371" r="1.6" fill="#c3ccd6" opacity="0.55"></circle><circle cx="832" cy="208" r="1" fill="#c3ccd6" opacity="0.65"></circle><circle cx="1565" cy="45" r="1" fill="#c3ccd6" opacity="0.25"></circle><circle cx="378" cy="442" r="1" fill="#c3ccd6" opacity="0.35"></circle><circle cx="1111" cy="279" r="1" fill="#c3ccd6" opacity="0.45"></circle><circle cx="1844" cy="116" r="1" fill="#c3ccd6" opacity="0.55"></circle><circle cx="657" cy="513" r="1" fill="#c3ccd6" opacity="0.65"></circle><g filter="url(#wp14b)" opacity="0.85"><path d="M-100 330 C 300 180, 620 420, 980 260 S 1600 120, 2020 250 L 2020 420 C 1600 300, 1300 470, 980 430 S 300 360, -100 480 Z" fill="url(#wp14a)"></path><path d="M200 520 C 520 400, 860 560, 1200 430 S 1700 380, 2000 470 L 2000 520 C 1700 450, 1400 560, 1150 540 S 560 480, 200 580 Z" fill="url(#wp14a)" opacity=".6"></path><path d="M420 120 C 700 40, 1000 190, 1300 110 S 1700 60, 1900 130 L 1900 190 C 1600 150, 1350 230, 1150 210 S 700 120, 420 200 Z" fill="url(#wp14a)" opacity=".45"></path></g><path d="M0 669.6 C 345.59999999999997 629.6, 652.8000000000001 659.6, 960 639.6 S 1574.3999999999999 599.6, 1920 649.6 V 1080 H 0 Z" fill="#232b36"></path><path d="M0 739.6 C 422.4 689.6, 864 759.6, 1267.2 719.6 S 1728 689.6, 1920 729.6 V 1080 H 0 Z" fill="#1d2530"></path><path d="M0 839.6 C 576 779.6, 1056 859.6, 1497.6000000000001 809.6 S 1824 799.6, 1920 819.6 V 1080 H 0 Z" fill="#2a3440"></path><path d="M0 959.6 C 480 919.6, 1152 969.6, 1920 929.6 V 1080 H 0 Z" fill="#3e4a58" opacity="0.35"></path></svg>